{
    "asset" : {
        "generator" : "Khronos glTF Blender I/O v3.3.32",
        "version" : "2.0"
    },
    "extensionsUsed" : [
        "KHR_materials_specular",
        "KHR_materials_ior"
    ],
    "scene" : 0,
    "scenes" : [
        {
            "extras" : {
                "blosm" : {
                    "defaultLevels" : [
                        {
                            "levels" : 4,
                            "weight" : 10
                        },
                        {
                            "levels" : 5,
                            "weight" : 40
                        },
                        {
                            "levels" : 6,
                            "weight" : 10
                        }
                    ]
                }
            },
            "name" : "Scene",
            "nodes" : [
                0
            ]
        }
    ],
    "nodes" : [
        {
            "mesh" : 0,
            "name" : "Cube",
            "rotation" : [
                0.45347386598587036,
                0.561897337436676,
                0.4292684495449066,
                0.5425509214401245
            ],
            "scale" : [
                1.9999998807907104,
                2,
                2
            ],
            "translation" : [
                0,
                1.1518832445144653,
                0
            ]
        }
    ],
    "materials" : [
        {
            "doubleSided" : true,
            "extensions" : {
                "KHR_materials_specular" : {
                    "specularColorFactor" : [
                        0,
                        0,
                        0
                    ]
                },
                "KHR_materials_ior" : {
                    "ior" : 1.4500000476837158
                }
            },
            "name" : "frente",
            "pbrMetallicRoughness" : {
                "baseColorTexture" : {
                    "index" : 0
                },
                "metallicFactor" : 0
            }
        },
        {
            "doubleSided" : true,
            "name" : "atras",
            "pbrMetallicRoughness" : {
                "baseColorTexture" : {
                    "index" : 1
                },
                "metallicFactor" : 0,
                "roughnessFactor" : 0.5
            }
        }
    ],
    "meshes" : [
        {
            "name" : "Cube",
            "primitives" : [
                {
                    "attributes" : {
                        "POSITION" : 0,
                        "NORMAL" : 1,
                        "TEXCOORD_0" : 2
                    },
                    "indices" : 3,
                    "material" : 0
                },
                {
                    "attributes" : {
                        "POSITION" : 4,
                        "NORMAL" : 5,
                        "TEXCOORD_0" : 6
                    },
                    "indices" : 7,
                    "material" : 1
                }
            ]
        }
    ],
    "textures" : [
        {
            "sampler" : 0,
            "source" : 0
        },
        {
            "sampler" : 0,
            "source" : 1
        }
    ],
    "images" : [
        {
            "mimeType" : "image/jpeg",
            "name" : "81WglzaJi6L",
            "uri" : "81WglzaJi6L.jpg"
        },
        {
            "mimeType" : "image/jpeg",
            "name" : "zambosss",
            "uri" : "zambosss.jpg"
        }
    ],
    "accessors" : [
        {
            "bufferView" : 0,
            "componentType" : 5126,
            "count" : 487,
            "max" : [
                1.34238600730896,
                0.5160380601882935,
                0.9982466697692871
            ],
            "min" : [
                -1.3583145141601562,
                -0.32368916273117065,
                -1.0006440877914429
            ],
            "type" : "VEC3"
        },
        {
            "bufferView" : 1,
            "componentType" : 5126,
            "count" : 487,
            "type" : "VEC3"
        },
        {
            "bufferView" : 2,
            "componentType" : 5126,
            "count" : 487,
            "type" : "VEC2"
        },
        {
            "bufferView" : 3,
            "componentType" : 5123,
            "count" : 2646,
            "type" : "SCALAR"
        },
        {
            "bufferView" : 4,
            "componentType" : 5126,
            "count" : 571,
            "max" : [
                1.3553109169006348,
                0.39445507526397705,
                1.0007109642028809
            ],
            "min" : [
                -1.3583145141601562,
                -0.5145847201347351,
                -1.0006440877914429
            ],
            "type" : "VEC3"
        },
        {
            "bufferView" : 5,
            "componentType" : 5126,
            "count" : 571,
            "type" : "VEC3"
        },
        {
            "bufferView" : 6,
            "componentType" : 5126,
            "count" : 571,
            "type" : "VEC2"
        },
        {
            "bufferView" : 7,
            "componentType" : 5123,
            "count" : 3150,
            "type" : "SCALAR"
        }
    ],
    "bufferViews" : [
        {
            "buffer" : 0,
            "byteLength" : 5844,
            "byteOffset" : 0,
            "target" : 34962
        },
        {
            "buffer" : 0,
            "byteLength" : 5844,
            "byteOffset" : 5844,
            "target" : 34962
        },
        {
            "buffer" : 0,
            "byteLength" : 3896,
            "byteOffset" : 11688,
            "target" : 34962
        },
        {
            "buffer" : 0,
            "byteLength" : 5292,
            "byteOffset" : 15584,
            "target" : 34963
        },
        {
            "buffer" : 0,
            "byteLength" : 6852,
            "byteOffset" : 20876,
            "target" : 34962
        },
        {
            "buffer" : 0,
            "byteLength" : 6852,
            "byteOffset" : 27728,
            "target" : 34962
        },
        {
            "buffer" : 0,
            "byteLength" : 4568,
            "byteOffset" : 34580,
            "target" : 34962
        },
        {
            "buffer" : 0,
            "byteLength" : 6300,
            "byteOffset" : 39148,
            "target" : 34963
        }
    ],
    "samplers" : [
        {
            "magFilter" : 9729,
            "minFilter" : 9987
        }
    ],
    "buffers" : [
        {
            "byteLength" : 45448,
            "uri" : "zambos.bin"
        }
    ]
}
